<?xml version="1.0" standalone="no"?>
<!DOCTYPE svg PUBLIC "-//W3C//DTD SVG 20010904//EN"
 "http://www.w3.org/TR/2001/REC-SVG-20010904/DTD/svg10.dtd">
<svg version="1.0" xmlns="http://www.w3.org/2000/svg"
 width="512.000000pt" height="512.000000pt" viewBox="0 0 512.000000 512.000000"
 preserveAspectRatio="xMidYMid meet">

<g transform="translate(0.000000,512.000000) scale(0.100000,-0.100000)"
fill="#000000" stroke="none">
<path d="M662 4233 c-61 -30 -112 -109 -112 -176 0 -14 -5 -17 -22 -12 -34 11
-113 8 -139 -5 -34 -18 -78 -61 -95 -92 -8 -15 -14 -55 -14 -88 0 -59 -1 -61
-22 -53 -13 4 -48 8 -80 8 -48 0 -62 -5 -95 -31 -21 -16 -48 -50 -61 -75 l-23
-44 4 -625 c4 -716 0 -679 98 -870 l54 -104 5 -564 c5 -543 6 -564 24 -578 25
-18 37 -18 62 0 18 14 19 31 19 558 0 617 4 584 -86 758 -78 152 -80 172 -77
854 l3 578 28 24 c34 29 76 31 108 5 l24 -19 5 -312 c5 -294 6 -312 24 -326
27 -19 42 -18 66 6 19 19 20 33 20 434 0 403 1 414 21 440 28 36 89 37 124 1
l25 -24 0 -416 c0 -402 1 -416 20 -435 23 -23 39 -25 63 -7 15 11 17 61 19
535 l3 524 28 24 c39 33 81 31 118 -5 l29 -29 0 -515 c0 -485 1 -515 18 -530
24 -22 45 -21 65 1 15 17 17 61 17 426 0 344 2 412 15 436 26 51 104 54 139 7
21 -28 21 -38 23 -490 l2 -462 26 -22 c17 -15 39 -23 63 -23 31 0 44 8 89 56
29 30 66 85 84 122 17 37 36 77 42 89 24 52 99 76 137 45 24 -20 24 -21 13
-98 -7 -44 -24 -115 -38 -159 -36 -110 -292 -603 -389 -750 -98 -149 -144
-239 -157 -309 -6 -32 -8 -238 -7 -516 3 -444 4 -462 22 -476 27 -19 42 -18
66 6 19 19 20 33 20 508 l0 487 29 60 c15 33 65 115 110 183 44 67 95 150 112
185 17 34 80 154 139 267 121 228 147 292 180 433 38 163 20 234 -68 278 -33
17 -54 20 -88 15 -95 -13 -157 -64 -194 -162 -11 -31 -35 -77 -53 -102 l-32
-44 -5 438 c-5 470 -4 458 -59 517 -49 53 -104 70 -182 54 l-36 -7 -5 45 c-14
123 -156 203 -266 148z"/>
<path d="M4100 4195 c-46 -21 -68 -42 -91 -87 -32 -64 -25 -108 56 -337 41
-116 75 -213 75 -216 0 -3 -14 -5 -30 -5 -55 0 -114 -35 -153 -90 -13 -19 -18
-20 -59 -10 -84 22 -172 -22 -209 -105 -23 -50 -24 -90 -2 -146 15 -38 18 -99
23 -419 6 -348 8 -380 29 -450 12 -41 38 -101 57 -134 76 -128 74 -112 74
-711 0 -522 0 -535 20 -555 24 -24 43 -25 64 -4 14 14 16 79 16 563 0 619 4
587 -81 751 -65 125 -79 200 -79 423 l0 172 19 -40 c59 -128 218 -153 310 -49
l37 42 46 -10 c37 -9 56 -8 99 6 63 21 112 16 186 -19 50 -23 52 -26 47 -54
-8 -39 9 -61 48 -61 70 0 103 90 53 144 -34 36 -161 94 -227 102 -92 12 -138
48 -138 110 0 53 17 59 169 59 124 -1 149 -4 286 -39 186 -47 222 -66 253
-128 24 -47 24 -49 12 -195 -18 -235 -36 -285 -175 -492 -161 -240 -155 -211
-155 -793 0 -455 1 -469 20 -488 23 -23 39 -25 63 -8 15 12 17 59 19 503 l3
490 31 65 c17 36 68 121 114 190 142 214 162 271 180 521 14 186 9 220 -41
288 -17 24 -53 56 -80 73 -45 29 -49 34 -44 62 3 17 30 216 60 442 59 448 59
454 8 523 -58 76 -178 92 -251 34 -65 -52 -73 -80 -117 -410 -22 -167 -42
-303 -45 -303 -3 0 -61 158 -129 350 -68 192 -133 362 -144 378 -51 71 -151
101 -227 67z m125 -107 c20 -18 56 -106 165 -411 76 -214 146 -400 155 -413
29 -44 101 -44 131 1 10 16 31 140 64 381 46 349 48 359 74 381 36 30 80 30
111 -2 20 -19 25 -34 25 -72 -1 -56 -103 -830 -111 -838 -4 -3 -54 6 -113 20
-63 16 -156 29 -224 33 l-117 7 -27 75 c-14 41 -81 228 -147 415 -67 187 -121
352 -121 368 0 36 43 77 81 77 15 0 40 -10 54 -22z m-65 -653 c29 -15 30 -17
95 -197 l27 -76 -41 -37 c-68 -62 -76 -140 -24 -225 l15 -25 -25 25 c-18 18
-48 88 -102 239 -41 117 -75 222 -75 233 0 26 53 78 80 78 11 0 34 -7 50 -15z
m-243 -108 c31 -31 176 -444 168 -477 -9 -35 -32 -58 -65 -65 -33 -7 -84 15
-95 42 -4 10 -40 112 -81 227 -53 149 -73 217 -69 237 15 66 92 86 142 36z"/>
<path d="M2045 3566 c-37 -16 -92 -77 -102 -114 -5 -15 -8 -243 -8 -507 0
-535 5 -590 67 -710 17 -33 42 -80 55 -105 12 -25 27 -69 33 -99 6 -32 10
-265 10 -571 0 -488 1 -518 18 -533 24 -22 45 -21 65 1 15 17 17 69 17 548 0
601 0 603 -77 744 -67 124 -75 158 -82 378 -3 105 -4 192 -1 192 3 0 21 -5 40
-10 46 -14 102 -4 146 26 l35 24 26 -20 c57 -45 153 -47 218 -4 16 10 29 12
46 6 13 -5 47 -12 76 -16 28 -4 76 -17 106 -30 51 -23 54 -26 49 -55 -9 -66
56 -84 103 -29 31 36 29 77 -6 114 -32 34 -168 93 -237 102 -50 7 -70 15 -93
38 -30 31 -45 80 -31 102 35 53 287 38 526 -32 100 -29 125 -40 155 -70 l36
-37 -2 -152 c-2 -252 -20 -305 -181 -551 -147 -224 -137 -165 -140 -750 -2
-456 -1 -500 14 -517 21 -24 46 -24 67 -1 14 16 17 73 19 512 l3 495 29 55
c15 30 65 111 111 180 144 219 160 264 179 501 14 179 9 229 -29 295 -28 47
-93 100 -136 109 l-29 7 0 176 c0 209 -10 243 -89 294 -41 26 -53 29 -107 26
-47 -3 -70 -10 -96 -30 -33 -25 -35 -25 -58 -8 -67 46 -128 50 -201 12 l-54
-28 -33 22 c-61 42 -158 40 -213 -5 -22 -18 -23 -18 -68 10 -50 33 -122 39
-176 15z m139 -117 l26 -31 0 -234 c0 -286 -5 -304 -93 -304 -18 0 -40 9 -54
22 -23 21 -23 23 -23 275 l0 254 25 24 c36 37 86 34 119 -6z m255 16 c41 -21
51 -61 51 -198 0 -113 -1 -120 -24 -138 -54 -43 -71 -130 -37 -199 10 -21 16
-41 13 -44 -3 -4 -20 -6 -38 -6 -89 0 -94 17 -94 302 0 251 3 268 54 288 31
13 44 12 75 -5z m299 -17 c21 -20 22 -30 22 -150 l0 -128 -85 0 -85 0 0 123
c0 96 3 127 16 145 32 46 88 50 132 10z m276 1 c25 -30 26 -34 26 -180 0 -82
-3 -149 -7 -149 -5 0 -43 8 -85 17 l-78 18 0 138 c0 133 1 139 25 162 36 37
86 34 119 -6z"/>
</g>
</svg>
